<svg width="1024" height="1024" viewBox="0 0 1024 1024" fill="none" xmlns="http://www.w3.org/2000/svg">
<path d="M400.807 4.6011L403.874 4.08987L400.807 4.6011ZM6.1348 28.6291C6.1348 44.4773 4.6011 44.4773 4.6011 60.3255C4.6011 76.1737 2.04493 76.1737 2.04493 92.022C2.04493 107.87 1.5337 107.87 1.5337 123.718C1.5337 139.567 6.64603 139.567 6.64603 155.415C6.64603 171.263 1.5337 171.263 1.5337 187.111C1.5337 202.96 4.6011 202.96 4.6011 218.808C4.6011 234.656 6.1348 234.656 6.1348 250.504C6.1348 266.352 3.57863 266.352 3.57863 282.201C3.57863 298.049 4.6011 298.049 4.6011 313.897C4.6011 329.745 0 329.745 0 345.594C0 361.442 0.511233 361.442 0.511233 377.29C2.04493 393.65 1.02247 393.65 1.02247 409.498C1.02247 425.346 5.62356 425.346 5.62356 441.194C5.62356 457.042 5.11233 457.042 5.11233 472.891C5.11233 488.739 4.08987 488.739 4.08987 504.587C4.08987 520.435 2.04493 520.435 2.04493 536.284C2.04493 552.132 2.04493 552.132 2.04493 567.98C2.04493 583.828 7.15726 583.828 7.15726 599.677C7.15726 615.525 1.02247 615.525 1.02247 631.373C1.02247 647.221 2.55617 647.221 2.55617 663.07C2.55617 678.918 6.1348 678.918 6.1348 694.766C6.1348 710.614 3.0674 710.614 3.0674 726.462C3.0674 742.311 4.6011 742.311 4.6011 758.159C4.6011 769.917 12.7808 777.074 24.5392 779.119C41.4099 782.187 40.3874 788.322 56.7469 790.878C73.6176 793.945 73.6176 793.945 89.977 797.013C106.848 800.08 107.87 792.923 124.741 795.99C141.612 799.058 140.589 804.681 156.949 807.748C173.819 810.816 174.331 805.704 191.201 808.26C208.072 811.327 207.049 816.439 223.92 819.507C240.791 822.574 241.302 818.996 258.173 821.552C268.909 823.597 279.645 823.597 289.869 823.085C300.605 822.574 311.852 823.597 322.077 821.041C332.302 817.973 342.015 812.35 351.728 807.748C361.442 802.636 371.666 798.546 379.846 791.9C388.026 785.254 395.183 776.052 401.829 767.872C408.475 759.693 414.099 749.979 418.7 740.266C423.301 730.552 426.368 720.328 428.925 709.592C431.481 699.367 433.014 688.631 433.526 677.384C433.526 667.159 433.014 657.446 433.014 647.221C433.014 636.997 431.481 627.283 431.481 617.058C431.481 606.834 434.548 596.609 434.037 586.896C434.037 576.671 432.503 566.446 432.503 556.733C432.503 546.508 434.037 536.284 434.037 526.57C434.037 515.834 434.037 506.121 434.037 496.407C433.526 486.183 426.88 477.492 424.324 467.778C422.279 458.065 422.279 447.84 418.189 438.638C414.099 429.436 410.009 420.234 403.874 412.054C398.251 403.874 391.093 396.717 383.425 390.071C376.268 384.959 367.065 378.824 358.886 373.711C368.088 369.11 378.312 363.998 385.47 357.352C393.138 350.706 396.717 340.481 402.34 331.79C407.964 323.099 417.677 316.453 420.745 306.74C423.812 297.026 422.79 286.291 422.79 275.555C423.301 264.819 419.722 254.083 420.234 243.347C420.234 232.611 422.79 221.875 422.79 211.139C422.79 200.403 422.79 189.668 422.79 178.932C422.79 168.196 421.256 157.46 420.745 146.724C420.234 135.477 418.7 125.252 416.144 115.027C413.076 104.292 408.475 95.0894 403.874 85.3759C398.762 75.6625 393.138 66.9715 385.981 58.7918C378.824 50.6121 371.666 42.9436 362.976 36.2976C353.773 30.1628 344.571 25.5617 334.346 20.9606C324.633 16.3595 315.431 10.7359 304.695 8.17973C294.47 5.62357 283.734 6.1348 272.487 6.1348C257.15 6.1348 257.15 6.64603 241.813 6.64603C226.476 6.64603 226.476 5.62357 211.139 5.62357C195.802 5.62357 195.802 0 180.465 0C165.128 0 165.128 4.6011 149.791 4.6011C134.454 4.6011 134.454 2.04493 119.117 2.04493C103.78 2.04493 103.78 5.62357 88.4433 5.62357C73.1063 5.62357 73.1063 0.511233 57.7693 0.511233C42.4324 0.511233 42.4323 6.64603 27.0954 6.64603C14.8258 7.15726 6.1348 14.8258 6.1348 28.6291ZM257.662 468.29C258.684 477.492 258.173 487.716 259.195 497.941C259.706 507.655 258.173 517.368 258.173 527.593C258.684 537.306 258.173 547.02 258.173 557.244C258.173 566.958 263.285 577.182 262.774 586.896C262.263 597.12 257.15 606.834 256.128 616.036C255.617 626.261 257.662 636.485 256.639 645.687C255.617 654.378 244.881 663.581 236.19 662.047C225.454 660.002 225.965 657.957 215.229 655.912C207.561 654.378 200.403 647.221 200.403 639.553C200.403 622.682 205.005 622.682 205.005 605.811C205.005 588.941 204.493 588.941 204.493 572.07C204.493 555.199 205.516 555.199 205.516 538.329C205.516 521.458 200.915 521.458 200.915 504.587C200.915 487.716 201.426 487.716 201.426 470.846C201.426 462.155 209.606 454.998 218.297 454.998C229.032 454.998 229.032 457.042 239.257 457.042C247.437 457.042 256.639 460.621 257.662 468.29ZM257.662 164.617C259.195 175.864 259.195 187.623 259.706 199.381C260.729 211.139 258.684 222.386 258.684 234.145C258.684 245.903 258.173 257.15 257.15 268.397C256.128 279.645 260.218 291.914 258.684 303.161C257.662 310.83 247.437 314.408 239.768 314.408C229.032 314.408 229.032 317.476 218.808 317.476C210.117 317.476 199.892 308.785 199.892 300.094C199.892 283.223 202.448 283.223 202.448 266.864C202.448 249.993 201.426 249.993 201.426 233.634C201.426 216.763 206.027 216.763 206.027 200.403C206.027 183.533 205.516 183.533 205.516 167.173C205.516 158.482 210.628 154.392 219.319 154.392C230.055 154.392 230.055 149.791 240.28 149.791C247.437 149.791 256.639 156.949 257.662 164.617ZM6.1348 850.181C6.1348 864.495 4.6011 864.495 4.6011 879.321C4.6011 893.636 2.04493 893.636 2.04493 908.461C2.04493 923.287 1.5337 923.287 1.5337 937.602C1.5337 952.427 6.64603 952.427 6.64603 966.742C6.64603 981.057 1.5337 981.568 1.5337 995.882C1.5337 1009.69 14.3145 1018.89 27.6066 1018.89C43.4548 1018.89 43.4548 1017.35 58.7918 1017.35C74.64 1017.35 74.64 1019.91 89.977 1019.91C105.825 1019.91 105.825 1018.89 121.162 1018.89C137.01 1018.89 137.01 1023.49 152.347 1023.49C168.196 1023.49 168.196 1022.98 183.533 1022.98C199.381 1022.98 199.381 1024 214.718 1024C230.566 1024 230.566 1019.4 245.903 1019.4C261.751 1019.4 261.751 1019.91 277.088 1019.91C292.937 1019.91 292.937 1020.93 308.274 1020.93C324.122 1020.93 324.122 1022.98 339.459 1022.98C355.307 1022.98 355.307 1022.98 370.644 1022.98C385.981 1022.98 386.492 1017.87 401.829 1017.87C415.633 1017.87 428.925 1010.2 428.925 996.905C428.925 976.967 427.391 976.967 427.391 957.029C427.391 937.09 423.812 937.09 423.812 917.152C423.812 905.394 417.677 894.658 405.919 892.613C390.071 890.057 390.071 891.591 374.223 888.523C358.374 885.967 358.374 888.012 342.526 884.945C326.678 882.389 328.212 875.742 312.363 873.186C296.515 870.63 297.026 870.119 281.178 867.052C265.33 864.495 264.308 871.141 248.459 868.074C232.611 865.518 233.634 859.383 218.297 856.827C202.448 854.271 201.937 859.383 186.089 856.316C170.241 853.759 171.263 848.136 155.926 845.58C140.078 843.024 139.567 846.602 124.23 843.535C108.381 840.979 108.381 840.979 93.0444 838.422C77.1962 835.866 77.7074 832.799 62.3704 830.243C47.0334 827.687 46.5222 829.22 30.674 826.664C17.8932 823.597 6.1348 834.844 6.1348 850.181ZM473.913 28.6291C473.913 44.4773 472.379 44.4773 472.379 60.8368C472.379 77.1962 469.823 76.685 469.823 93.0444C469.823 105.314 479.537 117.072 491.806 119.117C507.654 121.674 508.166 116.561 524.014 119.117C539.862 121.674 538.84 126.786 554.177 129.342C569.514 131.898 570.536 128.831 585.873 131.387C601.721 133.943 601.721 132.409 617.57 134.966C632.907 137.522 632.907 139.567 648.244 142.634C664.092 145.19 664.092 144.168 679.429 146.724C695.277 149.28 694.255 153.881 710.103 156.437C725.951 158.994 725.951 158.482 741.288 161.038C757.136 163.595 756.625 164.617 772.473 167.173C788.321 169.729 788.833 165.128 804.681 167.684C820.529 170.241 820.018 170.752 835.866 173.308C851.714 175.864 851.203 176.887 867.051 179.443C882.9 181.999 882.388 184.044 897.725 186.6C913.574 189.156 913.574 189.156 928.911 191.712C944.759 194.269 945.27 189.156 961.118 191.712C976.967 194.269 975.944 199.892 991.281 202.448C1006.11 205.005 1020.93 190.69 1020.93 175.864C1020.93 161.038 1017.35 161.038 1017.35 146.724C1017.35 131.898 1020.42 131.898 1020.42 117.584C1020.42 102.758 1018.89 102.758 1018.89 88.4433C1018.89 73.6176 1016.84 73.6176 1016.84 59.3031C1016.84 44.9885 1022.98 44.4773 1022.98 30.1628C1022.98 16.3595 1009.17 2.04493 995.371 2.04493C979.523 2.04493 979.523 8.69096 964.186 8.69096C948.337 8.69096 948.337 2.55617 933 2.55617C917.663 2.55617 917.663 7.6685 901.815 7.6685C885.967 7.6685 885.967 2.04493 870.63 2.04493C855.293 2.04493 855.293 5.62357 839.445 5.62357C823.597 5.62357 823.597 6.1348 808.26 6.1348C792.411 6.1348 792.411 3.57863 777.074 3.57863C761.226 3.57863 761.226 5.62357 745.889 5.62357C730.041 5.62357 730.041 3.0674 714.704 3.0674C698.856 3.0674 698.856 4.08987 683.519 4.08987C667.67 4.08987 667.67 4.6011 652.333 4.6011C636.485 4.6011 636.485 5.11233 621.148 5.11233C605.3 5.11233 605.3 4.6011 589.963 4.6011C574.115 4.6011 574.115 5.62357 558.778 5.62357C542.93 5.62357 542.93 7.15726 527.593 7.15726C511.744 7.15726 511.744 4.08987 496.407 4.08987C483.115 3.0674 473.913 14.8258 473.913 28.6291ZM516.857 1018.38C533.727 1018.38 533.727 1019.91 550.087 1019.91C566.958 1019.91 566.958 1022.47 583.317 1022.47C600.188 1022.47 600.188 1022.98 616.547 1022.98C633.418 1022.98 633.418 1017.87 649.777 1017.87C666.648 1017.87 666.648 1022.98 683.007 1022.98C692.721 1022.98 700.389 1014.8 704.479 1005.6C710.614 990.77 709.08 990.259 715.215 975.944C721.35 961.118 723.395 962.141 729.53 947.315C735.664 932.489 734.642 931.978 740.266 917.664C746.4 902.838 750.49 904.883 756.625 890.057C762.76 875.231 762.249 875.231 768.383 860.405C774.518 845.58 775.029 846.091 781.164 831.265C787.299 816.439 783.209 814.906 788.833 800.08C794.968 785.254 795.479 785.765 801.614 770.94C807.748 756.114 808.26 756.625 814.394 741.799C820.529 726.974 822.574 727.996 828.709 713.17C834.844 698.345 834.844 698.345 840.979 684.03C847.113 669.204 842.001 667.159 848.136 652.845C854.271 638.019 859.894 640.575 865.518 625.749C871.653 610.924 870.119 610.412 876.254 595.587C882.388 580.761 879.321 579.738 885.456 564.913C891.591 550.087 894.147 551.621 900.282 536.795C906.416 521.969 904.883 521.458 911.017 507.143C917.152 492.318 915.107 491.806 921.242 476.981C927.377 462.155 933 464.711 939.135 449.885C945.27 435.059 945.781 435.571 951.405 420.745C957.54 405.919 950.894 403.363 957.028 389.048C963.163 374.223 968.787 376.779 974.922 361.953C981.056 347.127 976.455 345.594 982.079 330.768C988.214 315.942 993.326 317.987 999.461 303.673C1005.6 289.358 1002.02 287.824 1008.15 272.999C1014.29 258.173 1005.6 242.836 989.747 240.28C973.899 237.723 974.41 235.167 959.073 232.611C943.225 230.055 943.225 232.1 927.377 229.544C911.529 226.988 912.04 224.943 896.703 222.386C880.855 219.83 880.855 220.853 865.006 218.297C849.158 215.74 849.158 216.252 833.821 213.695C822.574 211.651 810.816 218.808 806.726 229.032C800.591 243.347 800.591 243.347 794.456 258.173C788.321 272.487 789.344 272.999 783.209 287.824C777.074 302.139 778.608 303.161 772.984 317.476C766.85 331.79 764.294 330.768 758.159 345.594C752.024 359.908 753.558 360.419 747.423 375.245C741.288 389.56 739.754 389.048 733.62 403.874C727.485 418.189 726.974 418.189 720.839 432.503C714.704 446.818 720.327 449.374 714.193 463.688C708.058 478.003 704.99 476.981 698.856 491.295C692.721 505.61 692.21 505.61 686.075 519.924C679.94 534.239 680.451 534.75 674.828 549.064C668.693 563.379 670.227 564.401 664.092 578.716C657.957 593.03 656.423 592.519 650.289 606.834C644.154 621.148 647.732 622.682 641.598 637.508C635.463 651.822 629.839 649.777 623.704 664.092C617.57 678.406 620.126 679.94 613.991 694.255C607.856 708.569 610.924 710.103 605.3 724.417C599.165 738.732 597.632 738.221 591.497 752.535C585.362 767.361 585.362 766.85 579.227 781.676C573.092 796.501 574.115 796.501 567.98 811.327C561.845 825.642 561.845 825.642 555.71 840.467C549.576 854.782 550.598 855.293 544.463 870.119C538.328 884.945 538.328 884.433 532.194 899.259C526.059 914.085 526.059 913.574 519.924 928.399C513.789 943.225 514.812 943.225 508.677 958.051C502.542 972.877 500.497 971.854 494.362 986.169C490.784 994.349 493.34 1000.99 497.941 1007.64C503.053 1014.8 508.166 1018.38 516.857 1018.38ZM496.919 1017.35C511.744 1017.35 511.744 1018.89 527.081 1018.89C541.907 1018.89 541.907 1021.44 557.244 1021.44C572.07 1021.44 572.07 1021.96 587.407 1021.96C602.233 1021.96 602.233 1016.84 617.57 1016.84C632.395 1016.84 632.395 1021.96 647.732 1021.96C661.536 1021.96 670.738 1009.17 670.738 995.882C670.738 980.034 669.204 980.034 669.204 964.186C669.204 948.338 671.76 948.338 671.76 932.489C671.76 916.641 670.738 916.641 670.738 900.793C670.738 884.945 675.339 884.945 675.339 869.096C675.339 853.248 674.828 853.248 674.828 837.4C674.828 821.552 675.85 821.552 675.85 805.704C675.85 789.855 671.249 789.855 671.249 774.007C671.249 758.159 671.76 758.159 671.76 742.311C671.76 726.462 672.783 726.462 672.783 710.614C672.783 694.766 674.828 694.766 674.828 678.918C674.828 663.069 674.828 663.069 674.828 647.221C674.828 631.373 669.715 631.373 669.715 616.036C669.715 600.188 675.85 600.188 675.85 584.34C675.85 568.491 674.316 568.491 674.316 552.643C674.316 536.795 670.738 536.795 670.738 520.947C670.738 505.098 673.805 505.098 673.805 489.25C673.805 473.402 672.272 473.402 672.272 457.554C672.272 441.705 670.227 441.705 670.227 425.857C670.227 410.009 676.361 410.009 676.361 394.161C676.361 378.313 676.873 378.313 676.873 362.464C676.873 346.616 670.227 346.616 670.227 330.768C670.227 314.92 676.361 314.92 676.361 299.071C676.361 283.223 671.249 283.223 671.249 267.375C671.249 251.527 676.873 251.527 676.873 235.678C676.873 219.83 673.294 219.83 673.294 203.982C673.294 191.712 665.114 182.51 653.356 180.465C638.53 177.909 639.041 175.353 623.704 172.797C608.879 170.241 608.367 172.286 593.542 169.729C578.716 167.173 578.716 165.128 563.89 162.572C549.064 160.016 548.553 161.038 533.727 158.994C518.902 156.437 518.902 156.949 503.565 154.392C488.739 151.836 474.424 164.106 474.424 179.443C474.424 195.802 473.913 195.802 473.913 211.651C473.913 228.01 474.936 228.01 474.936 243.858C474.936 260.218 476.469 260.218 476.469 276.066C476.469 292.425 473.402 292.425 473.402 308.274C473.402 324.633 474.936 324.633 474.936 340.481C474.936 356.841 472.891 356.841 472.891 372.689C472.891 389.048 472.379 389.048 472.379 404.897C472.379 421.256 478.003 421.256 478.003 437.104C478.003 453.464 474.424 453.464 474.424 469.312C474.424 485.672 473.402 485.672 473.402 501.52C473.402 517.879 473.913 517.879 473.913 533.727C473.913 550.087 475.447 550.087 475.447 565.935C475.447 582.295 473.402 582.295 473.402 598.143C473.402 614.502 476.98 614.502 476.98 630.35C476.98 646.71 470.846 646.71 470.846 662.558C470.846 678.918 473.402 678.918 473.402 694.766C473.402 711.125 476.98 711.125 476.98 726.974C476.98 743.333 474.936 743.333 474.936 759.181C474.936 775.03 474.936 775.541 474.936 791.389C474.936 807.748 475.958 807.748 475.958 823.597C475.958 839.956 475.958 839.956 475.958 855.804C475.958 872.164 476.98 872.164 476.98 888.012C476.98 904.372 476.98 904.372 476.98 920.731C476.98 937.09 476.98 937.09 476.98 953.45C476.98 969.809 478.003 969.809 478.003 986.169C475.958 1008.66 483.627 1017.35 496.919 1017.35ZM781.164 1018.38C796.501 1018.38 796.501 1019.91 811.838 1019.91C827.175 1019.91 827.175 1022.47 842.512 1022.47C857.849 1022.47 857.849 1022.98 873.186 1022.98C888.523 1022.98 888.523 1017.87 903.86 1017.87C919.197 1017.87 919.197 1022.98 934.534 1022.98C949.871 1022.98 949.871 1019.91 965.208 1019.91C980.545 1019.91 980.545 1018.38 995.882 1018.38C1009.69 1018.38 1019.91 1010.71 1019.91 996.905C1019.91 980.545 1018.89 980.545 1018.89 964.186C1018.89 947.826 1023.49 947.826 1023.49 931.467C1023.49 915.107 1022.98 915.107 1022.98 899.259C1022.98 882.9 1024 882.9 1024 866.54C1024 850.181 1019.4 850.181 1019.4 834.333C1019.4 817.973 1019.91 817.973 1019.91 801.614C1019.91 785.254 1020.93 785.254 1020.93 769.406C1020.93 753.046 1022.98 753.047 1022.98 736.687C1022.98 720.328 1022.98 720.328 1022.98 703.968C1022.98 687.609 1017.87 687.609 1017.87 671.249C1017.87 654.89 1024 654.89 1024 638.53C1024 622.171 1022.47 622.171 1022.47 605.811C1022.47 589.452 1018.89 589.452 1018.89 573.092C1018.89 556.733 1021.96 556.733 1021.96 540.373C1021.96 524.014 1020.42 524.014 1020.42 507.655C1020.42 491.295 1018.38 491.295 1018.38 474.936C1018.38 461.644 1013.26 449.885 1002.53 447.84C991.792 445.795 976.455 451.93 971.343 464.2C965.208 478.514 971.854 481.07 965.719 495.896C959.585 510.211 953.961 508.166 948.337 522.48C942.203 536.795 947.315 538.84 941.18 553.154C935.045 567.469 929.933 565.424 924.31 579.738C918.175 594.053 921.753 595.587 915.619 609.901C909.484 624.216 909.995 624.216 903.86 639.041C897.725 653.356 895.169 652.334 889.546 666.648C883.411 680.963 885.456 681.985 879.321 696.3C873.186 710.614 871.141 709.592 865.006 724.417C858.872 738.732 859.894 739.243 854.271 753.558C848.136 767.872 848.647 767.872 842.512 782.698C836.377 797.524 836.889 797.524 830.754 811.838C824.619 826.153 824.619 826.153 818.484 840.467C812.349 854.782 813.372 855.293 807.237 869.608C801.102 883.922 802.636 884.945 797.012 899.259C790.878 913.574 788.322 912.551 782.187 926.866C776.052 941.18 777.586 941.692 771.451 956.517C765.316 971.343 763.782 970.321 757.647 984.635C754.069 992.815 755.091 1003.04 759.692 1009.69C763.271 1017.35 772.473 1018.38 781.164 1018.38Z" fill="#DA291C"/>
</svg>
