<svg width="60" height="60" viewBox="0 0 60 60" fill="none" xmlns="http://www.w3.org/2000/svg">
<path d="M0 0H2.85714V2.85714H0V0ZM2.85714 0H5.71429V2.85714H2.85714V0ZM5.71429 0H8.57143V2.85714H5.71429V0ZM8.57143 0H11.4286V2.85714H8.57143V0ZM11.4286 0H14.2857V2.85714H11.4286V0ZM14.2857 0H17.1429V2.85714H14.2857V0ZM17.1429 0H20V2.85714H17.1429V0ZM28.5714 0H31.4286V2.85714H28.5714V0ZM34.2857 0H37.1429V2.85714H34.2857V0ZM40 0H42.8571V2.85714H40V0ZM42.8571 0H45.7143V2.85714H42.8571V0ZM45.7143 0H48.5714V2.85714H45.7143V0ZM48.5714 0H51.4286V2.85714H48.5714V0ZM51.4286 0H54.2857V2.85714H51.4286V0ZM54.2857 0H57.1429V2.85714H54.2857V0ZM57.1429 0H60V2.85714H57.1429V0ZM0 2.85714H2.85714V5.71429H0V2.85714ZM17.1429 2.85714H20V5.71429H17.1429V2.85714ZM22.8571 2.85714H25.7143V5.71429H22.8571V2.85714ZM25.7143 2.85714H28.5714V5.71429H25.7143V2.85714ZM28.5714 2.85714H31.4286V5.71429H28.5714V2.85714ZM34.2857 2.85714H37.1429V5.71429H34.2857V2.85714ZM40 2.85714H42.8571V5.71429H40V2.85714ZM57.1429 2.85714H60V5.71429H57.1429V2.85714ZM0 5.71429H2.85714V8.57143H0V5.71429ZM5.71429 5.71429H8.57143V8.57143H5.71429V5.71429ZM8.57143 5.71429H11.4286V8.57143H8.57143V5.71429ZM11.4286 5.71429H14.2857V8.57143H11.4286V5.71429ZM17.1429 5.71429H20V8.57143H17.1429V5.71429ZM28.5714 5.71429H31.4286V8.57143H28.5714V5.71429ZM34.2857 5.71429H37.1429V8.57143H34.2857V5.71429ZM40 5.71429H42.8571V8.57143H40V5.71429ZM45.7143 5.71429H48.5714V8.57143H45.7143V5.71429ZM48.5714 5.71429H51.4286V8.57143H48.5714V5.71429ZM51.4286 5.71429H54.2857V8.57143H51.4286V5.71429ZM57.1429 5.71429H60V8.57143H57.1429V5.71429ZM0 8.57143H2.85714V11.4286H0V8.57143ZM5.71429 8.57143H8.57143V11.4286H5.71429V8.57143ZM8.57143 8.57143H11.4286V11.4286H8.57143V8.57143ZM11.4286 8.57143H14.2857V11.4286H11.4286V8.57143ZM17.1429 8.57143H20V11.4286H17.1429V8.57143ZM22.8571 8.57143H25.7143V11.4286H22.8571V8.57143ZM25.7143 8.57143H28.5714V11.4286H25.7143V8.57143ZM40 8.57143H42.8571V11.4286H40V8.57143ZM45.7143 8.57143H48.5714V11.4286H45.7143V8.57143ZM48.5714 8.57143H51.4286V11.4286H48.5714V8.57143ZM51.4286 8.57143H54.2857V11.4286H51.4286V8.57143ZM57.1429 8.57143H60V11.4286H57.1429V8.57143ZM0 11.4286H2.85714V14.2857H0V11.4286ZM5.71429 11.4286H8.57143V14.2857H5.71429V11.4286ZM8.57143 11.4286H11.4286V14.2857H8.57143V11.4286ZM11.4286 11.4286H14.2857V14.2857H11.4286V11.4286ZM17.1429 11.4286H20V14.2857H17.1429V11.4286ZM25.7143 11.4286H28.5714V14.2857H25.7143V11.4286ZM34.2857 11.4286H37.1429V14.2857H34.2857V11.4286ZM40 11.4286H42.8571V14.2857H40V11.4286ZM45.7143 11.4286H48.5714V14.2857H45.7143V11.4286ZM48.5714 11.4286H51.4286V14.2857H48.5714V11.4286ZM51.4286 11.4286H54.2857V14.2857H51.4286V11.4286ZM57.1429 11.4286H60V14.2857H57.1429V11.4286ZM0 14.2857H2.85714V17.1429H0V14.2857ZM17.1429 14.2857H20V17.1429H17.1429V14.2857ZM22.8571 14.2857H25.7143V17.1429H22.8571V14.2857ZM31.4286 14.2857H34.2857V17.1429H31.4286V14.2857ZM34.2857 14.2857H37.1429V17.1429H34.2857V14.2857ZM40 14.2857H42.8571V17.1429H40V14.2857ZM57.1429 14.2857H60V17.1429H57.1429V14.2857ZM0 17.1429H2.85714V20H0V17.1429ZM2.85714 17.1429H5.71429V20H2.85714V17.1429ZM5.71429 17.1429H8.57143V20H5.71429V17.1429ZM8.57143 17.1429H11.4286V20H8.57143V17.1429ZM11.4286 17.1429H14.2857V20H11.4286V17.1429ZM14.2857 17.1429H17.1429V20H14.2857V17.1429ZM17.1429 17.1429H20V20H17.1429V17.1429ZM22.8571 17.1429H25.7143V20H22.8571V17.1429ZM28.5714 17.1429H31.4286V20H28.5714V17.1429ZM34.2857 17.1429H37.1429V20H34.2857V17.1429ZM40 17.1429H42.8571V20H40V17.1429ZM42.8571 17.1429H45.7143V20H42.8571V17.1429ZM45.7143 17.1429H48.5714V20H45.7143V17.1429ZM48.5714 17.1429H51.4286V20H48.5714V17.1429ZM51.4286 17.1429H54.2857V20H51.4286V17.1429ZM54.2857 17.1429H57.1429V20H54.2857V17.1429ZM57.1429 17.1429H60V20H57.1429V17.1429ZM25.7143 20H28.5714V22.8571H25.7143V20ZM31.4286 20H34.2857V22.8571H31.4286V20ZM34.2857 20H37.1429V22.8571H34.2857V20ZM0 22.8571H2.85714V25.7143H0V22.8571ZM2.85714 22.8571H5.71429V25.7143H2.85714V22.8571ZM5.71429 22.8571H8.57143V25.7143H5.71429V22.8571ZM8.57143 22.8571H11.4286V25.7143H8.57143V22.8571ZM11.4286 22.8571H14.2857V25.7143H11.4286V22.8571ZM17.1429 22.8571H20V25.7143H17.1429V22.8571ZM20 22.8571H22.8571V25.7143H20V22.8571ZM22.8571 22.8571H25.7143V25.7143H22.8571V22.8571ZM31.4286 22.8571H34.2857V25.7143H31.4286V22.8571ZM34.2857 22.8571H37.1429V25.7143H34.2857V22.8571ZM37.1429 22.8571H40V25.7143H37.1429V22.8571ZM42.8571 22.8571H45.7143V25.7143H42.8571V22.8571ZM48.5714 22.8571H51.4286V25.7143H48.5714V22.8571ZM54.2857 22.8571H57.1429V25.7143H54.2857V22.8571ZM2.85714 25.7143H5.71429V28.5714H2.85714V25.7143ZM5.71429 25.7143H8.57143V28.5714H5.71429V25.7143ZM22.8571 25.7143H25.7143V28.5714H22.8571V25.7143ZM25.7143 25.7143H28.5714V28.5714H25.7143V25.7143ZM31.4286 25.7143H34.2857V28.5714H31.4286V25.7143ZM34.2857 25.7143H37.1429V28.5714H34.2857V25.7143ZM42.8571 25.7143H45.7143V28.5714H42.8571V25.7143ZM45.7143 25.7143H48.5714V28.5714H45.7143V25.7143ZM51.4286 25.7143H54.2857V28.5714H51.4286V25.7143ZM57.1429 25.7143H60V28.5714H57.1429V25.7143ZM5.71429 28.5714H8.57143V31.4286H5.71429V28.5714ZM11.4286 28.5714H14.2857V31.4286H11.4286V28.5714ZM14.2857 28.5714H17.1429V31.4286H14.2857V28.5714ZM17.1429 28.5714H20V31.4286H17.1429V28.5714ZM28.5714 28.5714H31.4286V31.4286H28.5714V28.5714ZM31.4286 28.5714H34.2857V31.4286H31.4286V28.5714ZM34.2857 28.5714H37.1429V31.4286H34.2857V28.5714ZM40 28.5714H42.8571V31.4286H40V28.5714ZM48.5714 28.5714H51.4286V31.4286H48.5714V28.5714ZM51.4286 28.5714H54.2857V31.4286H51.4286V28.5714ZM54.2857 28.5714H57.1429V31.4286H54.2857V28.5714ZM0 31.4286H2.85714V34.2857H0V31.4286ZM2.85714 31.4286H5.71429V34.2857H2.85714V31.4286ZM14.2857 31.4286H17.1429V34.2857H14.2857V31.4286ZM20 31.4286H22.8571V34.2857H20V31.4286ZM22.8571 31.4286H25.7143V34.2857H22.8571V31.4286ZM28.5714 31.4286H31.4286V34.2857H28.5714V31.4286ZM51.4286 31.4286H54.2857V34.2857H51.4286V31.4286ZM54.2857 31.4286H57.1429V34.2857H54.2857V31.4286ZM57.1429 31.4286H60V34.2857H57.1429V31.4286ZM14.2857 34.2857H17.1429V37.1429H14.2857V34.2857ZM17.1429 34.2857H20V37.1429H17.1429V34.2857ZM20 34.2857H22.8571V37.1429H20V34.2857ZM22.8571 34.2857H25.7143V37.1429H22.8571V34.2857ZM25.7143 34.2857H28.5714V37.1429H25.7143V34.2857ZM28.5714 34.2857H31.4286V37.1429H28.5714V34.2857ZM31.4286 34.2857H34.2857V37.1429H31.4286V34.2857ZM34.2857 34.2857H37.1429V37.1429H34.2857V34.2857ZM45.7143 34.2857H48.5714V37.1429H45.7143V34.2857ZM54.2857 34.2857H57.1429V37.1429H54.2857V34.2857ZM22.8571 37.1429H25.7143V40H22.8571V37.1429ZM25.7143 37.1429H28.5714V40H25.7143V37.1429ZM34.2857 37.1429H37.1429V40H34.2857V37.1429ZM37.1429 37.1429H40V40H37.1429V37.1429ZM42.8571 37.1429H45.7143V40H42.8571V37.1429ZM48.5714 37.1429H51.4286V40H48.5714V37.1429ZM54.2857 37.1429H57.1429V40H54.2857V37.1429ZM57.1429 37.1429H60V40H57.1429V37.1429ZM0 40H2.85714V42.8571H0V40ZM2.85714 40H5.71429V42.8571H2.85714V40ZM5.71429 40H8.57143V42.8571H5.71429V40ZM8.57143 40H11.4286V42.8571H8.57143V40ZM11.4286 40H14.2857V42.8571H11.4286V40ZM14.2857 40H17.1429V42.8571H14.2857V40ZM17.1429 40H20V42.8571H17.1429V40ZM22.8571 40H25.7143V42.8571H22.8571V40ZM31.4286 40H34.2857V42.8571H31.4286V40ZM40 40H42.8571V42.8571H40V40ZM42.8571 40H45.7143V42.8571H42.8571V40ZM54.2857 40H57.1429V42.8571H54.2857V40ZM0 42.8571H2.85714V45.7143H0V42.8571ZM17.1429 42.8571H20V45.7143H17.1429V42.8571ZM25.7143 42.8571H28.5714V45.7143H25.7143V42.8571ZM34.2857 42.8571H37.1429V45.7143H34.2857V42.8571ZM37.1429 42.8571H40V45.7143H37.1429V42.8571ZM40 42.8571H42.8571V45.7143H40V42.8571ZM42.8571 42.8571H45.7143V45.7143H42.8571V42.8571ZM48.5714 42.8571H51.4286V45.7143H48.5714V42.8571ZM51.4286 42.8571H54.2857V45.7143H51.4286V42.8571ZM54.2857 42.8571H57.1429V45.7143H54.2857V42.8571ZM0 45.7143H2.85714V48.5714H0V45.7143ZM5.71429 45.7143H8.57143V48.5714H5.71429V45.7143ZM8.57143 45.7143H11.4286V48.5714H8.57143V45.7143ZM11.4286 45.7143H14.2857V48.5714H11.4286V45.7143ZM17.1429 45.7143H20V48.5714H17.1429V45.7143ZM22.8571 45.7143H25.7143V48.5714H22.8571V45.7143ZM25.7143 45.7143H28.5714V48.5714H25.7143V45.7143ZM28.5714 45.7143H31.4286V48.5714H28.5714V45.7143ZM31.4286 45.7143H34.2857V48.5714H31.4286V45.7143ZM42.8571 45.7143H45.7143V48.5714H42.8571V45.7143ZM54.2857 45.7143H57.1429V48.5714H54.2857V45.7143ZM0 48.5714H2.85714V51.4286H0V48.5714ZM5.71429 48.5714H8.57143V51.4286H5.71429V48.5714ZM8.57143 48.5714H11.4286V51.4286H8.57143V48.5714ZM11.4286 48.5714H14.2857V51.4286H11.4286V48.5714ZM17.1429 48.5714H20V51.4286H17.1429V48.5714ZM22.8571 48.5714H25.7143V51.4286H22.8571V48.5714ZM31.4286 48.5714H34.2857V51.4286H31.4286V48.5714ZM34.2857 48.5714H37.1429V51.4286H34.2857V48.5714ZM37.1429 48.5714H40V51.4286H37.1429V48.5714ZM40 48.5714H42.8571V51.4286H40V48.5714ZM42.8571 48.5714H45.7143V51.4286H42.8571V48.5714ZM45.7143 48.5714H48.5714V51.4286H45.7143V48.5714ZM48.5714 48.5714H51.4286V51.4286H48.5714V48.5714ZM0 51.4286H2.85714V54.2857H0V51.4286ZM5.71429 51.4286H8.57143V54.2857H5.71429V51.4286ZM8.57143 51.4286H11.4286V54.2857H8.57143V51.4286ZM11.4286 51.4286H14.2857V54.2857H11.4286V51.4286ZM17.1429 51.4286H20V54.2857H17.1429V51.4286ZM22.8571 51.4286H25.7143V54.2857H22.8571V51.4286ZM28.5714 51.4286H31.4286V54.2857H28.5714V51.4286ZM34.2857 51.4286H37.1429V54.2857H34.2857V51.4286ZM40 51.4286H42.8571V54.2857H40V51.4286ZM42.8571 51.4286H45.7143V54.2857H42.8571V51.4286ZM48.5714 51.4286H51.4286V54.2857H48.5714V51.4286ZM51.4286 51.4286H54.2857V54.2857H51.4286V51.4286ZM0 54.2857H2.85714V57.1429H0V54.2857ZM17.1429 54.2857H20V57.1429H17.1429V54.2857ZM22.8571 54.2857H25.7143V57.1429H22.8571V54.2857ZM25.7143 54.2857H28.5714V57.1429H25.7143V54.2857ZM34.2857 54.2857H37.1429V57.1429H34.2857V54.2857ZM40 54.2857H42.8571V57.1429H40V54.2857ZM48.5714 54.2857H51.4286V57.1429H48.5714V54.2857ZM51.4286 54.2857H54.2857V57.1429H51.4286V54.2857ZM0 57.1429H2.85714V60H0V57.1429ZM2.85714 57.1429H5.71429V60H2.85714V57.1429ZM5.71429 57.1429H8.57143V60H5.71429V57.1429ZM8.57143 57.1429H11.4286V60H8.57143V57.1429ZM11.4286 57.1429H14.2857V60H11.4286V57.1429ZM14.2857 57.1429H17.1429V60H14.2857V57.1429ZM17.1429 57.1429H20V60H17.1429V57.1429ZM22.8571 57.1429H25.7143V60H22.8571V57.1429ZM34.2857 57.1429H37.1429V60H34.2857V57.1429ZM37.1429 57.1429H40V60H37.1429V57.1429ZM54.2857 57.1429H57.1429V60H54.2857V57.1429Z" fill="#333333"/>
</svg>
