<svg width="64" height="64" viewBox="0 0 64 64" fill="none" xmlns="http://www.w3.org/2000/svg">
<path fill-rule="evenodd" clip-rule="evenodd" d="M25.3343 5.26446C39.9347 1.62417 55.0951 10.7334 58.7354 25.3341C61.2151 35.2795 60.336 43.9167 53.7105 49.3151C50.9127 51.5948 47.5937 51.3092 45.1542 49.6852C42.8245 48.1344 41.2009 45.3572 41.0274 42.2723C40.7567 37.4591 40.335 32.3544 39.764 30.0642C38.7853 26.1389 34.7171 23.0759 30.0644 24.2359C25.4116 25.396 23.2573 30.0106 24.236 33.9357C25.2294 37.92 29.004 40.9935 33.9358 39.7639C35.3639 39.4079 36.8102 40.2769 37.1663 41.705C37.5224 43.1332 36.6533 44.5795 35.2252 44.9356C26.9844 46.9903 20.6514 41.5908 19.0643 35.2252C17.4625 28.8005 20.9218 21.0222 28.775 19.0642C36.6283 17.1062 43.3338 22.3502 44.9356 28.7747C45.6533 31.6531 46.0866 37.3085 46.349 41.973C46.431 43.4302 47.2135 44.6531 48.1077 45.2484C48.8921 45.7705 49.6148 45.777 50.3438 45.1831C54.5544 41.7523 55.8609 35.8371 53.5637 26.6235C50.6355 14.8791 38.3679 7.508 26.6237 10.4361C14.8795 13.3643 7.50804 25.632 10.4362 37.3764C13.3644 49.1208 25.632 56.4919 37.3764 53.5637C38.8045 53.2076 40.2509 54.0767 40.607 55.5048C40.963 56.9329 40.094 58.3793 38.6659 58.7354C24.0652 62.3757 8.90489 53.2664 5.26455 38.6658C1.6242 24.0652 10.7339 8.90474 25.3343 5.26446Z" fill="black"/>
</svg>
