<svg width="64" height="64" viewBox="0 0 64 64" fill="none" xmlns="http://www.w3.org/2000/svg">
<path d="M32 8.77048C39.5852 8.77048 40.5333 8.77048 43.6148 9.00752C51.437 9.24455 54.9926 13.0371 55.2296 20.6223C55.4667 23.7038 55.4667 24.4149 55.4667 32.0001C55.4667 39.5853 55.4667 40.5334 55.2296 43.3779C54.9926 50.9631 51.2 54.7557 43.6148 54.9927C40.5333 55.2297 39.8222 55.2297 32 55.2297C24.4148 55.2297 23.4667 55.2297 20.6222 54.9927C12.8 54.7557 9.24443 50.9631 9.00739 43.3779C8.77036 40.2964 8.77036 39.5853 8.77036 32.0001C8.77036 24.4149 8.77036 23.4668 9.00739 20.6223C9.24443 13.0371 13.037 9.24455 20.6222 9.00752C23.4667 8.77048 24.4148 8.77048 32 8.77048ZM32 3.55566C24.1778 3.55566 23.2296 3.55566 20.3852 3.7927C9.95554 4.26678 4.26665 9.95566 3.79258 20.3853C3.55554 23.2297 3.55554 24.1779 3.55554 32.0001C3.55554 39.8223 3.55554 40.7705 3.79258 43.6149C4.26665 54.0446 9.95554 59.7334 20.3852 60.2075C23.2296 60.4446 24.1778 60.4446 32 60.4446C39.8222 60.4446 40.7704 60.4446 43.6148 60.2075C54.0444 59.7334 59.7333 54.0446 60.2074 43.6149C60.4444 40.7705 60.4444 39.8223 60.4444 32.0001C60.4444 24.1779 60.4444 23.2297 60.2074 20.3853C59.7333 9.95566 54.0444 4.26678 43.6148 3.7927C40.7704 3.55566 39.8222 3.55566 32 3.55566ZM32 17.3038C23.9407 17.3038 17.3037 23.9408 17.3037 32.0001C17.3037 40.0594 23.9407 46.6964 32 46.6964C40.0592 46.6964 46.6963 40.0594 46.6963 32.0001C46.6963 23.9408 40.0592 17.3038 32 17.3038ZM32 41.4816C26.7852 41.4816 22.5185 37.2149 22.5185 32.0001C22.5185 26.7853 26.7852 22.5186 32 22.5186C37.2148 22.5186 41.4815 26.7853 41.4815 32.0001C41.4815 37.2149 37.2148 41.4816 32 41.4816ZM47.1704 13.5112C45.2741 13.5112 43.8518 14.9334 43.8518 16.8297C43.8518 18.726 45.2741 20.1483 47.1704 20.1483C49.0667 20.1483 50.4889 18.726 50.4889 16.8297C50.4889 14.9334 49.0667 13.5112 47.1704 13.5112Z" fill="black"/>
</svg>
