<svg width="64" height="64" viewBox="0 0 64 64" fill="none" xmlns="http://www.w3.org/2000/svg">
<path fill-rule="evenodd" clip-rule="evenodd" d="M10.1715 32.0001C10.1715 27.4459 11.4906 22.994 13.9619 19.2073C16.4331 15.4206 19.9457 12.4693 24.0553 10.7264C28.1649 8.98362 32.687 8.52762 37.0497 9.4161C41.4125 10.3046 45.4199 12.4976 48.5652 15.7179C51.7106 18.9382 53.8526 23.0412 54.7204 27.5079C55.5882 31.9745 55.1428 36.6044 53.4406 40.8119C51.7383 45.0195 48.8556 48.6157 45.1571 51.1459C41.4586 53.6761 37.1102 55.0265 32.662 55.0265C28.407 55.0343 24.238 53.7995 20.6442 51.4669C20.3245 51.2599 19.9652 51.1254 19.5904 51.0726C19.2157 51.0198 18.8343 51.0499 18.4718 51.1608L10.8515 53.4878L13.7224 46.6151C13.8892 46.215 13.9595 45.7796 13.9273 45.3458C13.8951 44.912 13.7612 44.4925 13.5372 44.1228C11.3303 40.4836 10.1642 36.2837 10.1715 32.0001V32.0001ZM32.662 3.55566C17.3182 3.55566 4.87963 16.2906 4.87963 32.0001C4.87963 36.9792 6.13116 41.6658 8.33259 45.7428L3.76834 56.6709C3.57079 57.1443 3.50907 57.6655 3.59041 58.1735C3.67175 58.6815 3.89278 59.1552 4.22761 59.5393C4.56244 59.9233 4.99722 60.2017 5.48102 60.3419C5.96482 60.482 6.47761 60.4782 6.95934 60.3307L18.8661 56.6953C23.0653 59.159 27.8222 60.4518 32.662 60.4445C48.0059 60.4445 60.4444 47.7095 60.4444 32.0001C60.4444 16.2906 48.0059 3.55566 32.662 3.55566ZM38.7292 37.9111L35.2498 40.4196C33.3327 39.2904 31.5724 37.9027 30.0161 36.2938C28.3453 34.5855 26.9006 32.6602 25.7191 30.567L27.9284 28.6464C28.3888 28.2465 28.7018 27.6974 28.8153 27.0903C28.9289 26.4832 28.8363 25.8546 28.5529 25.3089L25.7376 19.8909C25.5503 19.5311 25.286 19.2192 24.9645 18.9785C24.643 18.7378 24.2726 18.5745 23.8809 18.5009C23.4892 18.4272 23.0863 18.4449 22.7023 18.5529C22.3182 18.6608 21.9629 18.8561 21.6629 19.1242L20.8267 19.8692C18.8185 21.6626 17.6304 24.61 18.6147 27.5953C20.1983 32.3174 22.8189 36.6046 26.2747 40.1271C31.0718 45.0385 35.9457 46.9727 38.798 47.7258C41.0947 48.3299 43.267 47.5199 44.799 46.2413L46.3627 44.9355C46.6924 44.6603 46.9524 44.3077 47.1207 43.9077C47.289 43.5077 47.3606 43.072 47.3294 42.6377C47.2983 42.2033 47.1653 41.783 46.9417 41.4125C46.7182 41.0419 46.4106 40.732 46.0452 40.509L41.6053 37.8C41.1663 37.5318 40.6608 37.3996 40.1499 37.4193C39.639 37.439 39.1446 37.6098 38.7265 37.9111H38.7292Z" fill="black"/>
</svg>
